<?xml version="1.0" encoding="utf-8"?>
<!-- Generator: Adobe Illustrator 16.0.0, SVG Export Plug-In . SVG Version: 6.00 Build 0)  -->
<!DOCTYPE svg PUBLIC "-//W3C//DTD SVG 1.0//EN" "http://www.w3.org/TR/2001/REC-SVG-20010904/DTD/svg10.dtd">
<svg version="1.0" id="圖層_1" xmlns="http://www.w3.org/2000/svg" xmlns:xlink="http://www.w3.org/1999/xlink" x="0px" y="0px"
	 width="505.974px" height="487.022px" viewBox="0 0 505.974 487.022" enable-background="new 0 0 505.974 487.022"
	 xml:space="preserve">
<g>
	<g opacity="0.7">
		<defs>
			<path id="SVGID_1_" opacity="0.7" d="M252.989,71.612c-98.93,0-179.41,80.48-179.41,179.41c0,98.92,80.48,179.41,179.41,179.41
				c98.92,0,179.41-80.49,179.41-179.41C432.398,152.092,351.909,71.612,252.989,71.612z M252.989,405.432
				c-85.14,0-154.41-69.27-154.41-154.41c0-85.14,69.27-154.41,154.41-154.41c85.14,0,154.41,69.27,154.41,154.41
				C407.398,336.162,338.128,405.432,252.989,405.432z"/>
		</defs>
		<clipPath id="SVGID_2_">
			<use xlink:href="#SVGID_1_"  overflow="visible"/>
		</clipPath>
		<g clip-path="url(#SVGID_2_)">
			
				<line fill="none" stroke="#F2F2F2" stroke-width="0.2" stroke-miterlimit="10" x1="323.099" y1="-87.568" x2="-181.401" y2="416.932"/>
			
				<line fill="none" stroke="#F2F2F2" stroke-width="0.2" stroke-miterlimit="10" x1="326.379" y1="-85.277" x2="-178.121" y2="419.223"/>
			
				<line fill="none" stroke="#F2F2F2" stroke-width="0.2" stroke-miterlimit="10" x1="329.659" y1="-82.988" x2="-174.841" y2="421.512"/>
			
				<line fill="none" stroke="#F2F2F2" stroke-width="0.2" stroke-miterlimit="10" x1="332.938" y1="-80.698" x2="-171.562" y2="423.802"/>
			
				<line fill="none" stroke="#F2F2F2" stroke-width="0.2" stroke-miterlimit="10" x1="336.219" y1="-78.408" x2="-168.281" y2="426.092"/>
			
				<line fill="none" stroke="#F2F2F2" stroke-width="0.2" stroke-miterlimit="10" x1="339.499" y1="-76.118" x2="-165.001" y2="428.382"/>
			
				<line fill="none" stroke="#F2F2F2" stroke-width="0.2" stroke-miterlimit="10" x1="342.779" y1="-73.828" x2="-161.721" y2="430.672"/>
			
				<line fill="none" stroke="#F2F2F2" stroke-width="0.2" stroke-miterlimit="10" x1="346.059" y1="-71.538" x2="-158.441" y2="432.962"/>
			
				<line fill="none" stroke="#F2F2F2" stroke-width="0.2" stroke-miterlimit="10" x1="349.339" y1="-69.248" x2="-155.161" y2="435.252"/>
			
				<line fill="none" stroke="#F2F2F2" stroke-width="0.2" stroke-miterlimit="10" x1="352.619" y1="-66.958" x2="-151.881" y2="437.542"/>
			
				<line fill="none" stroke="#F2F2F2" stroke-width="0.2" stroke-miterlimit="10" x1="355.898" y1="-64.668" x2="-148.602" y2="439.833"/>
			
				<line fill="none" stroke="#F2F2F2" stroke-width="0.2" stroke-miterlimit="10" x1="359.179" y1="-62.378" x2="-145.321" y2="442.122"/>
			
				<line fill="none" stroke="#F2F2F2" stroke-width="0.2" stroke-miterlimit="10" x1="362.458" y1="-60.088" x2="-142.041" y2="444.412"/>
			
				<line fill="none" stroke="#F2F2F2" stroke-width="0.2" stroke-miterlimit="10" x1="365.739" y1="-57.797" x2="-138.761" y2="446.702"/>
			
				<line fill="none" stroke="#F2F2F2" stroke-width="0.2" stroke-miterlimit="10" x1="369.019" y1="-55.507" x2="-135.481" y2="448.993"/>
			
				<line fill="none" stroke="#F2F2F2" stroke-width="0.2" stroke-miterlimit="10" x1="372.298" y1="-53.218" x2="-132.201" y2="451.282"/>
			
				<line fill="none" stroke="#F2F2F2" stroke-width="0.2" stroke-miterlimit="10" x1="375.579" y1="-50.928" x2="-128.921" y2="453.572"/>
			
				<line fill="none" stroke="#F2F2F2" stroke-width="0.2" stroke-miterlimit="10" x1="378.859" y1="-48.638" x2="-125.641" y2="455.862"/>
			
				<line fill="none" stroke="#F2F2F2" stroke-width="0.2" stroke-miterlimit="10" x1="382.139" y1="-46.348" x2="-122.361" y2="458.152"/>
			
				<line fill="none" stroke="#F2F2F2" stroke-width="0.2" stroke-miterlimit="10" x1="385.419" y1="-44.057" x2="-119.081" y2="460.442"/>
			
				<line fill="none" stroke="#F2F2F2" stroke-width="0.2" stroke-miterlimit="10" x1="388.699" y1="-41.768" x2="-115.801" y2="462.732"/>
			
				<line fill="none" stroke="#F2F2F2" stroke-width="0.2" stroke-miterlimit="10" x1="391.979" y1="-39.478" x2="-112.521" y2="465.022"/>
			
				<line fill="none" stroke="#F2F2F2" stroke-width="0.2" stroke-miterlimit="10" x1="395.259" y1="-37.188" x2="-109.241" y2="467.313"/>
			
				<line fill="none" stroke="#F2F2F2" stroke-width="0.2" stroke-miterlimit="10" x1="398.539" y1="-34.898" x2="-105.961" y2="469.602"/>
			
				<line fill="none" stroke="#F2F2F2" stroke-width="0.2" stroke-miterlimit="10" x1="401.819" y1="-32.608" x2="-102.681" y2="471.892"/>
			
				<line fill="none" stroke="#F2F2F2" stroke-width="0.2" stroke-miterlimit="10" x1="405.099" y1="-30.318" x2="-99.401" y2="474.182"/>
			
				<line fill="none" stroke="#F2F2F2" stroke-width="0.2" stroke-miterlimit="10" x1="408.379" y1="-28.028" x2="-96.121" y2="476.472"/>
			
				<line fill="none" stroke="#F2F2F2" stroke-width="0.2" stroke-miterlimit="10" x1="411.659" y1="-25.738" x2="-92.841" y2="478.762"/>
			
				<line fill="none" stroke="#F2F2F2" stroke-width="0.2" stroke-miterlimit="10" x1="414.938" y1="-23.448" x2="-89.562" y2="481.052"/>
			
				<line fill="none" stroke="#F2F2F2" stroke-width="0.2" stroke-miterlimit="10" x1="418.219" y1="-21.158" x2="-86.281" y2="483.342"/>
			
				<line fill="none" stroke="#F2F2F2" stroke-width="0.2" stroke-miterlimit="10" x1="421.499" y1="-18.868" x2="-83.001" y2="485.632"/>
			
				<line fill="none" stroke="#F2F2F2" stroke-width="0.2" stroke-miterlimit="10" x1="424.779" y1="-16.578" x2="-79.721" y2="487.922"/>
			
				<line fill="none" stroke="#F2F2F2" stroke-width="0.2" stroke-miterlimit="10" x1="428.059" y1="-14.288" x2="-76.441" y2="490.212"/>
			
				<line fill="none" stroke="#F2F2F2" stroke-width="0.2" stroke-miterlimit="10" x1="431.339" y1="-11.998" x2="-73.161" y2="492.502"/>
			
				<line fill="none" stroke="#F2F2F2" stroke-width="0.2" stroke-miterlimit="10" x1="434.619" y1="-9.708" x2="-69.881" y2="494.792"/>
			
				<line fill="none" stroke="#F2F2F2" stroke-width="0.2" stroke-miterlimit="10" x1="437.899" y1="-7.417" x2="-66.602" y2="497.083"/>
			
				<line fill="none" stroke="#F2F2F2" stroke-width="0.2" stroke-miterlimit="10" x1="441.179" y1="-5.127" x2="-63.321" y2="499.372"/>
			
				<line fill="none" stroke="#F2F2F2" stroke-width="0.2" stroke-miterlimit="10" x1="444.459" y1="-2.837" x2="-60.041" y2="501.662"/>
			
				<line fill="none" stroke="#F2F2F2" stroke-width="0.2" stroke-miterlimit="10" x1="447.739" y1="-0.547" x2="-56.761" y2="503.952"/>
			
				<line fill="none" stroke="#F2F2F2" stroke-width="0.2" stroke-miterlimit="10" x1="451.019" y1="1.743" x2="-53.481" y2="506.243"/>
			
				<line fill="none" stroke="#F2F2F2" stroke-width="0.2" stroke-miterlimit="10" x1="454.299" y1="4.033" x2="-50.201" y2="508.533"/>
			
				<line fill="none" stroke="#F2F2F2" stroke-width="0.2" stroke-miterlimit="10" x1="457.579" y1="6.323" x2="-46.921" y2="510.823"/>
			
				<line fill="none" stroke="#F2F2F2" stroke-width="0.2" stroke-miterlimit="10" x1="460.859" y1="8.612" x2="-43.641" y2="513.112"/>
			
				<line fill="none" stroke="#F2F2F2" stroke-width="0.2" stroke-miterlimit="10" x1="464.139" y1="10.902" x2="-40.361" y2="515.402"/>
			
				<line fill="none" stroke="#F2F2F2" stroke-width="0.2" stroke-miterlimit="10" x1="467.419" y1="13.192" x2="-37.081" y2="517.692"/>
			
				<line fill="none" stroke="#F2F2F2" stroke-width="0.2" stroke-miterlimit="10" x1="470.699" y1="15.482" x2="-33.801" y2="519.982"/>
			
				<line fill="none" stroke="#F2F2F2" stroke-width="0.2" stroke-miterlimit="10" x1="473.979" y1="17.772" x2="-30.521" y2="522.272"/>
			
				<line fill="none" stroke="#F2F2F2" stroke-width="0.2" stroke-miterlimit="10" x1="477.259" y1="20.062" x2="-27.241" y2="524.563"/>
			
				<line fill="none" stroke="#F2F2F2" stroke-width="0.2" stroke-miterlimit="10" x1="480.539" y1="22.352" x2="-23.961" y2="526.852"/>
			
				<line fill="none" stroke="#F2F2F2" stroke-width="0.2" stroke-miterlimit="10" x1="483.818" y1="24.642" x2="-20.681" y2="529.142"/>
			
				<line fill="none" stroke="#F2F2F2" stroke-width="0.2" stroke-miterlimit="10" x1="487.099" y1="26.932" x2="-17.401" y2="531.432"/>
			
				<line fill="none" stroke="#F2F2F2" stroke-width="0.2" stroke-miterlimit="10" x1="490.379" y1="29.222" x2="-14.121" y2="533.722"/>
			
				<line fill="none" stroke="#F2F2F2" stroke-width="0.2" stroke-miterlimit="10" x1="493.659" y1="31.512" x2="-10.841" y2="536.012"/>
			
				<line fill="none" stroke="#F2F2F2" stroke-width="0.2" stroke-miterlimit="10" x1="496.939" y1="33.802" x2="-7.561" y2="538.302"/>
			
				<line fill="none" stroke="#F2F2F2" stroke-width="0.2" stroke-miterlimit="10" x1="500.219" y1="36.092" x2="-4.281" y2="540.592"/>
			
				<line fill="none" stroke="#F2F2F2" stroke-width="0.2" stroke-miterlimit="10" x1="503.499" y1="38.382" x2="-1.001" y2="542.882"/>
			
				<line fill="none" stroke="#F2F2F2" stroke-width="0.2" stroke-miterlimit="10" x1="506.779" y1="40.672" x2="2.278" y2="545.172"/>
			
				<line fill="none" stroke="#F2F2F2" stroke-width="0.2" stroke-miterlimit="10" x1="510.059" y1="42.962" x2="5.559" y2="547.462"/>
			
				<line fill="none" stroke="#F2F2F2" stroke-width="0.2" stroke-miterlimit="10" x1="513.339" y1="45.252" x2="8.839" y2="549.752"/>
			
				<line fill="none" stroke="#F2F2F2" stroke-width="0.2" stroke-miterlimit="10" x1="516.619" y1="47.542" x2="12.119" y2="552.042"/>
			
				<line fill="none" stroke="#F2F2F2" stroke-width="0.2" stroke-miterlimit="10" x1="519.898" y1="49.833" x2="15.398" y2="554.333"/>
			
				<line fill="none" stroke="#F2F2F2" stroke-width="0.2" stroke-miterlimit="10" x1="523.179" y1="52.123" x2="18.679" y2="556.623"/>
			
				<line fill="none" stroke="#F2F2F2" stroke-width="0.2" stroke-miterlimit="10" x1="526.459" y1="54.413" x2="21.958" y2="558.913"/>
			
				<line fill="none" stroke="#F2F2F2" stroke-width="0.2" stroke-miterlimit="10" x1="529.738" y1="56.703" x2="25.239" y2="561.202"/>
			
				<line fill="none" stroke="#F2F2F2" stroke-width="0.2" stroke-miterlimit="10" x1="533.019" y1="58.993" x2="28.519" y2="563.493"/>
			
				<line fill="none" stroke="#F2F2F2" stroke-width="0.2" stroke-miterlimit="10" x1="536.299" y1="61.283" x2="31.799" y2="565.782"/>
			
				<line fill="none" stroke="#F2F2F2" stroke-width="0.2" stroke-miterlimit="10" x1="539.579" y1="63.572" x2="35.079" y2="568.072"/>
			
				<line fill="none" stroke="#F2F2F2" stroke-width="0.2" stroke-miterlimit="10" x1="542.859" y1="65.862" x2="38.359" y2="570.362"/>
			
				<line fill="none" stroke="#F2F2F2" stroke-width="0.2" stroke-miterlimit="10" x1="546.139" y1="68.152" x2="41.639" y2="572.653"/>
			
				<line fill="none" stroke="#F2F2F2" stroke-width="0.2" stroke-miterlimit="10" x1="549.419" y1="70.442" x2="44.919" y2="574.942"/>
			
				<line fill="none" stroke="#F2F2F2" stroke-width="0.2" stroke-miterlimit="10" x1="552.699" y1="72.732" x2="48.198" y2="577.233"/>
			
				<line fill="none" stroke="#F2F2F2" stroke-width="0.2" stroke-miterlimit="10" x1="555.979" y1="75.022" x2="51.479" y2="579.522"/>
			
				<line fill="none" stroke="#F2F2F2" stroke-width="0.2" stroke-miterlimit="10" x1="559.259" y1="77.312" x2="54.759" y2="581.812"/>
			
				<line fill="none" stroke="#F2F2F2" stroke-width="0.2" stroke-miterlimit="10" x1="562.539" y1="79.602" x2="58.039" y2="584.102"/>
			
				<line fill="none" stroke="#F2F2F2" stroke-width="0.2" stroke-miterlimit="10" x1="565.819" y1="81.892" x2="61.319" y2="586.392"/>
			
				<line fill="none" stroke="#F2F2F2" stroke-width="0.2" stroke-miterlimit="10" x1="569.099" y1="84.182" x2="64.599" y2="588.682"/>
			
				<line fill="none" stroke="#F2F2F2" stroke-width="0.2" stroke-miterlimit="10" x1="572.379" y1="86.472" x2="67.879" y2="590.972"/>
			
				<line fill="none" stroke="#F2F2F2" stroke-width="0.2" stroke-miterlimit="10" x1="575.659" y1="88.762" x2="71.159" y2="593.262"/>
			
				<line fill="none" stroke="#F2F2F2" stroke-width="0.2" stroke-miterlimit="10" x1="578.938" y1="91.052" x2="74.438" y2="595.552"/>
			
				<line fill="none" stroke="#F2F2F2" stroke-width="0.2" stroke-miterlimit="10" x1="582.219" y1="93.342" x2="77.719" y2="597.842"/>
			
				<line fill="none" stroke="#F2F2F2" stroke-width="0.2" stroke-miterlimit="10" x1="585.499" y1="95.632" x2="80.999" y2="600.132"/>
			
				<line fill="none" stroke="#F2F2F2" stroke-width="0.2" stroke-miterlimit="10" x1="588.778" y1="97.922" x2="84.278" y2="602.422"/>
			
				<line fill="none" stroke="#F2F2F2" stroke-width="0.2" stroke-miterlimit="10" x1="592.059" y1="100.212" x2="87.559" y2="604.712"/>
			
				<line fill="none" stroke="#F2F2F2" stroke-width="0.2" stroke-miterlimit="10" x1="595.339" y1="102.502" x2="90.838" y2="607.002"/>
			
				<line fill="none" stroke="#F2F2F2" stroke-width="0.2" stroke-miterlimit="10" x1="598.619" y1="104.792" x2="94.119" y2="609.292"/>
			
				<line fill="none" stroke="#F2F2F2" stroke-width="0.2" stroke-miterlimit="10" x1="601.898" y1="107.082" x2="97.399" y2="611.583"/>
			
				<line fill="none" stroke="#F2F2F2" stroke-width="0.2" stroke-miterlimit="10" x1="605.179" y1="109.372" x2="100.679" y2="613.873"/>
			
				<line fill="none" stroke="#F2F2F2" stroke-width="0.2" stroke-miterlimit="10" x1="608.458" y1="111.662" x2="103.958" y2="616.163"/>
			
				<line fill="none" stroke="#F2F2F2" stroke-width="0.2" stroke-miterlimit="10" x1="611.739" y1="113.952" x2="107.239" y2="618.452"/>
			
				<line fill="none" stroke="#F2F2F2" stroke-width="0.2" stroke-miterlimit="10" x1="615.019" y1="116.242" x2="110.519" y2="620.742"/>
			
				<line fill="none" stroke="#F2F2F2" stroke-width="0.2" stroke-miterlimit="10" x1="618.298" y1="118.532" x2="113.799" y2="623.032"/>
			
				<line fill="none" stroke="#F2F2F2" stroke-width="0.2" stroke-miterlimit="10" x1="621.579" y1="120.822" x2="117.079" y2="625.322"/>
			
				<line fill="none" stroke="#F2F2F2" stroke-width="0.2" stroke-miterlimit="10" x1="624.859" y1="123.112" x2="120.358" y2="627.612"/>
			
				<line fill="none" stroke="#F2F2F2" stroke-width="0.2" stroke-miterlimit="10" x1="628.139" y1="125.402" x2="123.639" y2="629.902"/>
			
				<line fill="none" stroke="#F2F2F2" stroke-width="0.2" stroke-miterlimit="10" x1="631.418" y1="127.692" x2="126.918" y2="632.192"/>
			
				<line fill="none" stroke="#F2F2F2" stroke-width="0.2" stroke-miterlimit="10" x1="634.699" y1="129.982" x2="130.199" y2="634.482"/>
			
				<line fill="none" stroke="#F2F2F2" stroke-width="0.2" stroke-miterlimit="10" x1="637.979" y1="132.272" x2="133.479" y2="636.772"/>
			
				<line fill="none" stroke="#F2F2F2" stroke-width="0.2" stroke-miterlimit="10" x1="641.259" y1="134.562" x2="136.759" y2="639.062"/>
			
				<line fill="none" stroke="#F2F2F2" stroke-width="0.2" stroke-miterlimit="10" x1="644.539" y1="136.852" x2="140.039" y2="641.352"/>
			
				<line fill="none" stroke="#F2F2F2" stroke-width="0.2" stroke-miterlimit="10" x1="647.818" y1="139.142" x2="143.318" y2="643.642"/>
			
				<line fill="none" stroke="#F2F2F2" stroke-width="0.2" stroke-miterlimit="10" x1="651.099" y1="141.432" x2="146.599" y2="645.932"/>
		</g>
		<use xlink:href="#SVGID_1_"  overflow="visible" fill="none" stroke="#F2F2F2" stroke-width="0.2" stroke-miterlimit="10"/>
	</g>
	<circle fill="none" stroke="#78D1D2" stroke-miterlimit="10" cx="252.987" cy="251.021" r="192.74"/>
	<text transform="matrix(1 0 0 1 184.3086 250.6509)"><tspan x="0" y="0" fill="#142474" font-family="'MicrosoftJhengHeiBold'" font-size="31.9433" letter-spacing="2">藍圖印刷</tspan><tspan x="1.058" y="23.958" fill="#142474" font-family="'MicrosoftJhengHeiBold'" font-size="19.9645" letter-spacing="1">LAN-TU LTD</tspan></text>
	<g>
		<g>
			<circle fill="#FFFFFF" stroke="#142474" stroke-width="2" stroke-miterlimit="10" cx="252.987" cy="91.745" r="90.745"/>
			
				<text transform="matrix(1 0 0 1 201.3872 99.2783)" fill="#142474" font-family="'MicrosoftJhengHeiBold'" font-size="24" letter-spacing="1">印刷品質</text>
		</g>
		<g>
			<g>
				<circle fill="#FFFFFF" stroke="#142474" stroke-width="2" stroke-miterlimit="10" cx="91.745" cy="395.277" r="90.745"/>
				
					<text transform="matrix(1 0 0 1 27.2446 402.8237)" fill="#142474" font-family="'MicrosoftJhengHeiBold'" font-size="24" letter-spacing="1">客製化服務</text>
			</g>
			<g>
				<circle fill="#FFFFFF" stroke="#142474" stroke-width="2" stroke-miterlimit="10" cx="414.229" cy="395.277" r="90.745"/>
				
					<text transform="matrix(1 0 0 1 362.6284 402.8237)" fill="#142474" font-family="'MicrosoftJhengHeiBold'" font-size="24" letter-spacing="1">合作能力</text>
			</g>
		</g>
	</g>
</g>
</svg>
