<?xml version="1.0" encoding="utf-8"?>
<!-- Generator: Adobe Illustrator 16.0.0, SVG Export Plug-In . SVG Version: 6.00 Build 0)  -->
<!DOCTYPE svg PUBLIC "-//W3C//DTD SVG 1.0//EN" "http://www.w3.org/TR/2001/REC-SVG-20010904/DTD/svg10.dtd">
<svg version="1.0" id="圖層_1" xmlns="http://www.w3.org/2000/svg" xmlns:xlink="http://www.w3.org/1999/xlink" x="0px" y="0px"
	 width="1950.301px" height="175.489px" viewBox="0 0 1950.301 175.489" enable-background="new 0 0 1950.301 175.489"
	 xml:space="preserve">
<g>
	<g>
		<g>
			<path fill="none" stroke="#F2F2F2" stroke-width="0.3" d="M1354.716,1.374h46.359V141.29h104.399v25.242h-150.759V1.374z"/>
			<path fill="none" stroke="#F2F2F2" stroke-width="0.3" d="M1552.603,26.616h-72.364V1.374h191.845v25.242h-73.122v139.916
				h-46.358V26.616z"/>
			<path fill="none" stroke="#F2F2F2" stroke-width="0.3" d="M1701.867,3.582c20.354-2.208,46.358-3.432,73.88-3.432
				c47.484,0,80.278,6.371,103.642,19.114c24.5,12.986,39.57,32.588,39.57,60.764c0,29.404-15.449,51.458-39.57,65.673
				c-25.247,14.946-65.576,22.541-114.955,22.541c-27.132,0-47.485-0.975-62.566-2.203V3.582z M1748.226,143.493
				c6.409,0.736,16.208,0.736,25.638,0.736c60.303,0.248,96.106-21.318,96.106-63.217c0.379-36.512-32.036-57.336-90.076-57.336
				c-14.702,0-25.259,0.736-31.668,1.71V143.493z"/>
		</g>
		<g>
			<path fill="none" stroke="#F2F2F2" stroke-width="0.3" d="M1354.716,1.374h46.359V141.29h104.399v25.242h-150.759V1.374z"/>
			<path fill="none" stroke="#F2F2F2" stroke-width="0.3" d="M1552.603,26.616h-72.364V1.374h191.845v25.242h-73.122v139.916
				h-46.358V26.616z"/>
			<path fill="none" stroke="#F2F2F2" stroke-width="0.3" d="M1701.867,3.582c20.354-2.208,46.358-3.432,73.88-3.432
				c47.484,0,80.278,6.371,103.642,19.114c24.5,12.986,39.57,32.588,39.57,60.764c0,29.404-15.449,51.458-39.57,65.673
				c-25.247,14.946-65.576,22.541-114.955,22.541c-27.132,0-47.485-0.975-62.566-2.203V3.582z M1748.226,143.493
				c6.409,0.736,16.208,0.736,25.638,0.736c60.303,0.248,96.106-21.318,96.106-63.217c0.379-36.512-32.036-57.336-90.076-57.336
				c-14.702,0-25.259,0.736-31.668,1.71V143.493z"/>
		</g>
	</g>
	<g>
		<path fill="none" stroke="#F2F2F2" stroke-width="0.3" d="M0.15,2.564h47.734v144.02h107.49v25.978H0.15V2.564z"/>
		<path fill="none" stroke="#F2F2F2" stroke-width="0.3" d="M245.381,124.384l-22.508,48.178h-49.282L257.409,2.564h60.932
			l84.982,169.997h-51.226l-23.672-48.178H245.381z M320.278,100.935l-20.57-41.872c-5.045-10.345-9.311-21.945-13.191-31.781
			h-0.774c-3.882,9.836-7.763,21.69-12.418,31.781l-20.181,41.872H320.278z"/>
		<path fill="none" stroke="#F2F2F2" stroke-width="0.3" d="M439.771,172.562V2.564h54.327l67.524,72.896
			c17.464,18.913,32.599,38.585,44.627,57h0.774c-3.102-22.703-4.271-44.648-4.271-70.621V2.564h44.242v169.997h-49.287
			l-68.293-74.659c-16.689-18.665-34.152-39.598-46.955-58.767l-1.169,0.25c1.943,21.945,2.327,44.394,2.327,72.391v60.785H439.771z
			"/>
		<path fill="none" stroke="#F2F2F2" stroke-width="0.3" d="M855.729,28.542h-74.508V2.564h197.523v25.978h-75.287v144.02h-47.729
			V28.542z"/>
		<path fill="none" stroke="#F2F2F2" stroke-width="0.3" d="M1056.728,2.564v99.122c0,33.297,21.34,48.682,53.548,48.682
			c34.537,0,55.107-15.385,55.107-48.682V2.564h47.733v97.103c0,52.465-41.53,75.672-104.389,75.672
			c-60.542,0-99.733-21.945-99.733-75.417V2.564H1056.728z"/>
	</g>
	<rect x="683.345" y="95.77" fill="none" stroke="#F2F2F2" stroke-width="0.3" width="79.845" height="27.716"/>
	<path fill="none" stroke="#F2F2F2" stroke-width="0.3" d="M1950.15,159.181c0,7.719-6.258,13.977-13.977,13.977
		c-7.72,0-13.978-6.258-13.978-13.977c0-7.715,6.258-13.972,13.978-13.972C1943.893,145.209,1950.15,151.466,1950.15,159.181z"/>
</g>
</svg>
