<?xml version="1.0" encoding="utf-8"?>
<!-- Generator: Adobe Illustrator 16.0.0, SVG Export Plug-In . SVG Version: 6.00 Build 0)  -->
<!DOCTYPE svg PUBLIC "-//W3C//DTD SVG 1.0//EN" "http://www.w3.org/TR/2001/REC-SVG-20010904/DTD/svg10.dtd">
<svg version="1.0" id="圖層_1" xmlns="http://www.w3.org/2000/svg" xmlns:xlink="http://www.w3.org/1999/xlink" x="0px" y="0px"
	 width="1300.436px" height="113px" viewBox="0 0 1300.436 113" enable-background="new 0 0 1300.436 113" xml:space="preserve">
<g>
	<g>
		<g>
			<path fill="#F3F3F6" d="M859.434,2.624h29.413v88.772h66.239v16.015h-95.652V2.624z"/>
			<path fill="#F3F3F6" d="M984.986,18.639h-45.913V2.624h121.721v16.015H1014.4v88.772h-29.414V18.639z"/>
			<path fill="#F3F3F6" d="M1079.69,4.025c12.914-1.401,29.414-2.178,46.875-2.178c30.128,0,50.935,4.042,65.758,12.127
				c15.545,8.24,25.106,20.676,25.106,38.553c0,18.657-9.802,32.649-25.106,41.668c-16.019,9.483-41.606,14.302-72.937,14.302
				c-17.214,0-30.127-0.619-39.696-1.398V4.025z M1109.104,92.794c4.066,0.467,10.282,0.467,16.266,0.467
				c38.261,0.158,60.977-13.525,60.977-40.109c0.241-23.166-20.325-36.378-57.15-36.378c-9.328,0-16.025,0.467-20.092,1.085V92.794z
				"/>
		</g>
		<g>
			<path fill="none" stroke="#2C51AE" d="M859.434,2.624h29.413v88.772h66.239v16.015h-95.652V2.624z"/>
			<path fill="none" stroke="#2C51AE" d="M984.986,18.639h-45.913V2.624h121.721v16.015H1014.4v88.772h-29.414V18.639z"/>
			<path fill="none" stroke="#2C51AE" d="M1079.69,4.025c12.914-1.401,29.414-2.178,46.875-2.178
				c30.128,0,50.935,4.042,65.758,12.127c15.545,8.24,25.106,20.676,25.106,38.553c0,18.657-9.802,32.649-25.106,41.668
				c-16.019,9.483-41.606,14.302-72.937,14.302c-17.214,0-30.127-0.619-39.696-1.398V4.025z M1109.104,92.794
				c4.066,0.467,10.282,0.467,16.266,0.467c38.261,0.158,60.977-13.525,60.977-40.109c0.241-23.166-20.325-36.378-57.15-36.378
				c-9.328,0-16.025,0.467-20.092,1.085V92.794z"/>
		</g>
	</g>
	<g>
		<path fill="#2C51AE" d="M0,3.379h30.286v91.376h68.2v16.482H0V3.379z"/>
		<path fill="#2C51AE" d="M155.592,80.67l-14.281,30.567h-31.268L163.224,3.379h38.659l53.919,107.858h-32.501l-15.02-30.567
			H155.592z M203.112,65.792l-13.052-26.566c-3.201-6.563-5.907-13.924-8.369-20.165h-0.492c-2.462,6.241-4.925,13.762-7.879,20.165
			l-12.804,26.566H203.112z"/>
		<path fill="#2C51AE" d="M278.926,111.238V3.379h34.47l42.843,46.25c11.08,12,20.683,24.481,28.314,36.166h0.49
			c-1.968-14.404-2.709-28.328-2.709-44.807V3.379h28.07v107.858h-31.271l-43.33-47.369c-10.589-11.842-21.669-25.124-29.791-37.285
			l-0.742,0.158c1.232,13.924,1.477,28.167,1.477,45.93v38.566H278.926z"/>
		<path fill="#2C51AE" d="M542.84,19.862h-47.272V3.379h125.323v16.482h-47.768v91.376H542.84V19.862z"/>
		<path fill="#2C51AE" d="M670.368,3.379v62.89c0,21.126,13.539,30.886,33.975,30.886c21.913,0,34.964-9.76,34.964-30.886V3.379
			h30.285v61.609c0,33.288-26.35,48.011-66.231,48.011c-38.411,0-63.278-13.924-63.278-47.85V3.379H670.368z"/>
	</g>
	<g>
		<g>
			<path fill="#FFFFFF" stroke="#2C51AE" d="M1236.704,102.748c0,4.616-3.743,8.354-8.353,8.354c-4.616,0-8.353-3.737-8.353-8.354
				c0-4.609,3.736-8.353,8.353-8.353C1232.961,94.395,1236.704,98.138,1236.704,102.748z"/>
		</g>
	</g>
	<g>
		<rect x="439.088" y="57.71" fill="#2C51AE" width="52" height="17"/>
	</g>
	<g>
		<g>
			<path fill="#2C51AE" d="M1276.628,15.153v-1.628h2.74v-3.16h18.279v3.16h2.376v1.628H1276.628z M1277.974,9.86V3.428h10.908
				v1.174h-3.929v0.604h3.229V6.45c1.381-0.831,2.391-1.917,3.029-3.259h-0.186V2.466h-5.502v0.725h-3.05V2.466h-5.66V0.804h5.66V0
				h3.05v0.804h5.502V0h3.077v0.804h5.763v1.662h-5.763v0.725h-2.762l2.61,0.354c-0.123,0.254-0.336,0.632-0.646,1.126h6.251v1.577
				h-7.549c-0.563,0.573-1.141,1.037-1.731,1.398c-0.57-0.33-1.264-0.646-2.095-0.962V8.03h-3.229v0.639h4.06V9.86H1277.974z
				 M1280.454,5.207h1.991V4.602h-1.991V5.207z M1280.454,6.972h5.323V6.265h-5.323V6.972z M1280.454,8.669h1.991V8.03h-1.991V8.669
				z M1282.185,13.525h2.404v-1.717h-2.404V13.525z M1287.151,13.525h2.452v-1.717h-2.452V13.525z M1290.51,9.373V7.81h8.401v1.563
				H1290.51z M1292.193,13.525h2.452v-1.717h-2.452V13.525z"/>
			<path fill="#2C51AE" d="M1277.301,34.139V19.017h22.125v15.122h-2.994v-0.59h-16.287v0.59H1277.301z M1280.145,31.921h16.287
				V20.662h-16.287V31.921z M1281.023,25.471v-1.092h5.894V23.87h-3.798v-2.668h10.311v2.668h-3.93v0.508h6.155v1.092H1281.023z
				 M1282.212,31.364v-5.406h12.124v5.406H1282.212z M1284.568,30.258h7.288V27.05h-7.288V30.258z M1285.551,22.881h5.296v-0.673
				h-5.296V22.881z M1285.626,29.771v-2.236h5.248v2.236H1285.626z M1287.254,28.929h1.861V28.39h-1.861V28.929z"/>
			<path fill="#2C51AE" d="M1280.097,52.604v-2.775c-0.522,0.989-1.182,1.806-1.992,2.456c-0.206-0.168-0.529-0.385-0.969-0.649
				c-0.439-0.261-0.79-0.443-1.051-0.542c1.71-1.446,2.563-3.62,2.563-6.519v-2.288c-0.09,0.034-0.228,0.093-0.412,0.179
				c-0.192,0.083-0.337,0.147-0.44,0.192c-0.171-0.213-0.453-0.46-0.831-0.749c-0.378-0.285-0.714-0.508-1.003-0.663
				c1.464-0.55,2.782-1.206,3.95-1.968c1.037-0.68,1.882-1.395,2.534-2.133h2.741c2.569,1.288,4.369,2.298,5.399,3.026l-1.965,1.477
				c-0.446-0.337-0.9-0.66-1.367-0.976v0.876h-5.969v-0.639c-0.729,0.437-1.491,0.849-2.302,1.227h10.338v5.227h-8.346
				c0,0.021-0.014,0.048-0.027,0.083c-0.055,0.268-0.104,0.467-0.158,0.587h8.916v4.52h-2.658v-0.47h-4.368v0.522H1280.097z
				 M1281.182,45.968h5.372v-0.639h-5.324C1281.229,45.459,1281.216,45.672,1281.182,45.968z M1281.258,44.134h5.296v-0.604h-5.296
				V44.134z M1282.418,40.205h4.115c-0.948-0.597-1.718-1.044-2.302-1.346C1283.593,39.363,1282.988,39.813,1282.418,40.205z
				 M1282.68,50.653h4.368v-1.192h-4.368V50.653z M1290.847,48.434v-9.459h2.892v9.459H1290.847z M1293.306,52.617
				c-0.158-0.694-0.494-1.37-1.01-2.03c1.03,0.024,2.212,0.031,3.538,0.031c0.433,0,0.646-0.127,0.646-0.384V37.279h3.002v12.972
				c0,0.56-0.097,0.993-0.289,1.295c-0.206,0.302-0.563,0.525-1.085,0.673C1297.317,52.487,1295.717,52.617,1293.306,52.617z"/>
			<path fill="#2C51AE" d="M1278.571,70.786l-2.404-1.062c1.58-0.649,2.714-1.597,3.387-2.84l2.583,0.591
				C1281.292,69.007,1280.104,70.113,1278.571,70.786z M1277.17,60.551v-1.546h5.537c-0.124-0.292-0.337-0.666-0.646-1.126
				l0.124-0.014h-3.743V56.32h8.318v-0.893h3.057v0.893h8.346v1.545h-3.647l0.392,0.048c-0.206,0.227-0.502,0.522-0.879,0.893
				c-0.09,0.089-0.158,0.155-0.206,0.199h5.708v1.546H1277.17z M1286.869,70.937c-1.607,0-2.692-0.147-3.263-0.439
				c-0.528-0.289-0.797-0.838-0.797-1.648v-1.762h2.789l-0.31-0.086l1.059-0.669h-6.457v-5.094h17.131v5.094h-8.4
				c1.085,0.333,1.985,0.676,2.692,1.027l-1.861,1.243c-0.865-0.508-2.081-0.989-3.647-1.449v1.683c0,0.224,0.082,0.364,0.247,0.419
				c0.165,0.055,0.536,0.082,1.127,0.082h3.564c0.481,0,0.79-0.079,0.928-0.24c0.145-0.165,0.247-0.542,0.316-1.133
				c0.632,0.289,1.504,0.501,2.609,0.639c-0.171,0.917-0.508,1.535-0.995,1.854c-0.495,0.32-1.354,0.481-2.576,0.481H1286.869z
				 M1282.81,63.189h11.162v-0.722h-11.162V63.189z M1282.81,65.105h11.162V64.35h-11.162V65.105z M1285.42,59.005h5.735
				l-0.356-0.048c0.014-0.014,0.034-0.035,0.048-0.069c0.344-0.46,0.577-0.804,0.7-1.023h-6.415
				c0.261,0.392,0.467,0.755,0.625,1.092L1285.42,59.005z M1297.901,70.683c-0.357-0.44-0.928-0.958-1.704-1.563
				c-0.755-0.58-1.545-1.109-2.349-1.58l2.376-0.855c2.082,1.13,3.49,2.143,4.211,3.04L1297.901,70.683z"/>
			<path fill="#2C51AE" d="M1277.871,88.038V75.251l1.683,0.405c2.239-0.495,4.211-1.079,5.914-1.748l2.535,1.696
				c-1.91,0.594-4.259,1.154-7.027,1.68v2.267h6.306v1.917h-6.306v3.311h6.354v1.93h-6.354v1.329H1277.871z M1288.676,89.552v-14.5
				h10.777v9.86c0,1-0.412,1.646-1.243,1.948c-0.446,0.158-1.023,0.268-1.73,0.323c-0.516,0.041-1.285,0.065-2.302,0.065
				c-0.068-0.292-0.22-0.646-0.446-1.068c-0.233-0.419-0.474-0.763-0.714-1.03c0.79,0.021,1.73,0.034,2.816,0.034
				c0.329-0.014,0.494-0.117,0.494-0.323v-7.828h-4.547v12.519H1288.676z"/>
			<path fill="#2C51AE" d="M1283.923,108.05v-6.842h-1.374v5.111h-2.226v-4.623c-0.289,2.631-0.989,4.654-2.088,6.065
				c-0.228-0.168-0.591-0.37-1.086-0.604c-0.467-0.223-0.865-0.392-1.188-0.502c0.735-0.999,1.243-2.297,1.525-3.9
				c0.172-1.052,0.254-2.374,0.254-3.964v-5.53h12.461v4.89h-3.724v1.412h3.902v5.004c0,0.371-0.042,0.652-0.131,0.846
				c-0.117,0.232-0.323,0.412-0.618,0.535c-0.433,0.213-1.216,0.319-2.35,0.319c-0.089-0.525-0.329-1.048-0.728-1.563
				c0.35,0.011,0.728,0.014,1.14,0.014c0.172,0,0.262-0.058,0.262-0.183v-3.328h-1.478v6.842H1283.923z M1280.481,96.387h6.849
				v-1.343h-6.849V96.387z M1280.481,99.564h3.441v-1.412h-3.441v0.64C1280.481,99.048,1280.481,99.306,1280.481,99.564z
				 M1291.567,103.748v-9.73h2.872v9.73H1291.567z M1293.849,108.05c-0.11-0.563-0.419-1.236-0.935-2.02
				c0.894,0.024,1.938,0.035,3.126,0.035c0.213-0.011,0.356-0.041,0.439-0.082c0.089-0.049,0.13-0.139,0.13-0.269V92.708h2.947
				v13.007c0,0.536-0.097,0.954-0.281,1.257c-0.192,0.303-0.516,0.533-0.982,0.69C1297.517,107.92,1296.033,108.05,1293.849,108.05z
				"/>
		</g>
	</g>
</g>
</svg>
