<?xml version="1.0" encoding="utf-8"?>
<!-- Generator: Adobe Illustrator 16.0.0, SVG Export Plug-In . SVG Version: 6.00 Build 0)  -->
<!DOCTYPE svg PUBLIC "-//W3C//DTD SVG 1.0//EN" "http://www.w3.org/TR/2001/REC-SVG-20010904/DTD/svg10.dtd">
<svg version="1.0" id="圖層_1" xmlns="http://www.w3.org/2000/svg" xmlns:xlink="http://www.w3.org/1999/xlink" x="0px" y="0px"
	 width="576.5px" height="195.907px" viewBox="0 0 576.5 195.907" enable-background="new 0 0 576.5 195.907" xml:space="preserve">
<g>
	<g>
		<path fill="#2C51AE" d="M0.5,0h22.667v68.39h51.044v12.336H0.5V0z"/>
		<path fill="#2C51AE" d="M116.953,57.848l-10.689,22.878H82.862L122.665,0h28.934l40.355,80.727h-24.325l-11.241-22.878H116.953z
			 M152.519,46.712L142.75,26.83c-2.396-4.913-4.421-10.422-6.264-15.093h-0.369c-1.842,4.671-3.686,10.301-5.897,15.093
			l-9.583,19.883H152.519z"/>
		<path fill="#2C51AE" d="M209.262,80.727V0h25.799l32.065,34.615c8.293,8.982,15.479,18.324,21.192,27.068h0.367
			c-1.474-10.78-2.028-21.202-2.028-33.536V0h21.01v80.727h-23.405l-32.431-35.454c-7.926-8.863-16.218-18.804-22.297-27.906
			l-0.555,0.119c0.921,10.421,1.104,21.081,1.104,34.376v28.865H209.262z"/>
		<path fill="#2C51AE" d="M406.788,12.336h-35.382V0h93.798v12.336h-35.751v68.39h-22.665V12.336z"/>
		<path fill="#2C51AE" d="M502.236,0v47.07c0,15.812,10.134,23.117,25.428,23.117c16.401,0,26.17-7.305,26.17-23.117V0H576.5v46.111
			c0,24.914-19.721,35.934-49.57,35.934c-28.749,0-47.361-10.421-47.361-35.813V0H502.236z"/>
	</g>
	<g>
		<rect x="329.544" y="40.692" fill="#2C51AE" width="39" height="13"/>
	</g>
	<g>
		<g>
			<g>
				<path fill="#F3F3F6" d="M0.5,114.217h22.014v66.442h49.577v11.986H0.5V114.217z"/>
				<path fill="#F3F3F6" d="M94.47,126.204H60.106v-11.987h91.102v11.987h-34.723v66.441H94.47V126.204z"/>
				<path fill="#F3F3F6" d="M165.351,115.266c9.666-1.049,22.015-1.629,35.083-1.629c22.549,0,38.122,3.025,49.217,9.076
					c11.634,6.167,18.791,15.476,18.791,28.855c0,13.964-7.337,24.436-18.791,31.187c-11.989,7.098-31.141,10.704-54.59,10.704
					c-12.884,0-22.548-0.463-29.71-1.047V115.266z M187.366,181.706c3.044,0.35,7.696,0.35,12.174,0.35
					c28.636,0.118,45.638-10.123,45.638-30.02c0.181-17.339-15.213-27.227-42.774-27.227c-6.982,0-11.994,0.349-15.038,0.813
					V181.706z"/>
			</g>
			<g>
				<path fill="none" stroke="#2C51AE" d="M0.5,114.217h22.014v66.442h49.577v11.986H0.5V114.217z"/>
				<path fill="none" stroke="#2C51AE" d="M94.47,126.204H60.106v-11.987h91.102v11.987h-34.723v66.441H94.47V126.204z"/>
				<path fill="none" stroke="#2C51AE" d="M165.351,115.266c9.666-1.049,22.015-1.629,35.083-1.629
					c22.549,0,38.122,3.025,49.217,9.076c11.634,6.167,18.791,15.476,18.791,28.855c0,13.964-7.337,24.436-18.791,31.187
					c-11.989,7.098-31.141,10.704-54.59,10.704c-12.884,0-22.548-0.463-29.71-1.047V115.266z M187.366,181.706
					c3.044,0.35,7.696,0.35,12.174,0.35c28.636,0.118,45.638-10.123,45.638-30.02c0.181-17.339-15.213-27.227-42.774-27.227
					c-6.982,0-11.994,0.349-15.038,0.813V181.706z"/>
			</g>
		</g>
		<g>
			<g>
				<path fill="#FFFFFF" stroke="#2C51AE" d="M282.867,189.155c0,3.455-2.802,6.252-6.251,6.252c-3.455,0-6.251-2.797-6.251-6.252
					c0-3.45,2.796-6.251,6.251-6.251C280.065,182.903,282.867,185.705,282.867,189.155z"/>
			</g>
		</g>
		<g>
			<g>
				<path fill="#2C51AE" d="M312.749,123.595v-1.219h2.051v-2.365h13.68v2.365h1.779v1.219H312.749z M313.756,119.634v-4.815h8.165
					v0.879h-2.941v0.453h2.416v0.931c1.034-0.622,1.79-1.435,2.268-2.439h-0.139v-0.542h-4.118v0.542h-2.283v-0.542h-4.235v-1.244
					h4.235v-0.602h2.283v0.602h4.118v-0.602h2.303v0.602h4.314v1.244h-4.314v0.542h-2.066l1.954,0.265
					c-0.094,0.19-0.252,0.473-0.483,0.843h4.678v1.18h-5.649c-0.421,0.429-0.854,0.776-1.296,1.046
					c-0.427-0.247-0.946-0.483-1.568-0.72v1.007h-2.416v0.478h3.038v0.893H313.756z M315.612,116.15h1.49v-0.453h-1.49V116.15z
					 M315.612,117.472h3.983v-0.529h-3.983V117.472z M315.612,118.741h1.49v-0.478h-1.49V118.741z M316.907,122.376h1.8v-1.285h-1.8
					V122.376z M320.625,122.376h1.835v-1.285h-1.835V122.376z M323.139,119.269v-1.17h6.287v1.17H323.139z M324.398,122.376h1.836
					v-1.285h-1.836V122.376z"/>
				<path fill="#2C51AE" d="M313.253,137.805v-11.318h16.56v11.318h-2.242v-0.442h-12.189v0.442H313.253z M315.381,136.145h12.189
					v-8.426h-12.189V136.145z M316.039,131.317V130.5h4.411v-0.381h-2.844v-1.997h7.717v1.997h-2.94v0.381h4.607v0.817H316.039z
					 M316.928,135.728v-4.045h9.074v4.045H316.928z M318.691,134.9h5.455v-2.401h-5.455V134.9z M319.428,129.379h3.962v-0.504
					h-3.962V129.379z M319.483,134.535v-1.673h3.928v1.673H319.483z M320.701,133.905h1.393v-0.403h-1.393V133.905z"/>
				<path fill="#2C51AE" d="M315.345,151.624v-2.076c-0.391,0.74-0.884,1.351-1.49,1.838c-0.154-0.126-0.396-0.288-0.727-0.487
					c-0.329-0.195-0.591-0.331-0.786-0.405c1.28-1.082,1.918-2.709,1.918-4.879v-1.712c-0.067,0.026-0.17,0.069-0.309,0.134
					c-0.144,0.062-0.251,0.11-0.329,0.144c-0.128-0.159-0.34-0.345-0.622-0.56c-0.282-0.214-0.534-0.381-0.75-0.497
					c1.095-0.412,2.082-0.902,2.956-1.473c0.775-0.509,1.408-1.043,1.896-1.596h2.052c1.923,0.964,3.271,1.719,4.041,2.264
					l-1.471,1.105c-0.334-0.252-0.674-0.494-1.023-0.73v0.656h-4.467v-0.478c-0.546,0.327-1.115,0.635-1.724,0.918h7.737v3.912
					h-6.245c0,0.016-0.011,0.036-0.021,0.062c-0.04,0.201-0.076,0.35-0.117,0.44h6.673v3.383h-1.99v-0.352h-3.27v0.39H315.345z
					 M316.157,146.658h4.021v-0.478h-3.984C316.193,146.278,316.183,146.437,316.157,146.658z M316.214,145.285h3.964v-0.452h-3.964
					V145.285z M317.082,142.345h3.08c-0.71-0.447-1.285-0.781-1.722-1.008C317.962,141.715,317.51,142.052,317.082,142.345z
					 M317.277,150.165h3.27v-0.892h-3.27V150.165z M323.39,148.504v-7.08h2.166v7.08H323.39z M325.231,151.635
					c-0.119-0.519-0.371-1.025-0.756-1.519c0.771,0.018,1.655,0.023,2.647,0.023c0.324,0,0.483-0.095,0.483-0.288v-9.696h2.247
					v9.709c0,0.418-0.072,0.743-0.217,0.969c-0.153,0.226-0.422,0.394-0.813,0.503C328.233,151.537,327.035,151.635,325.231,151.635
					z"/>
				<path fill="#2C51AE" d="M314.202,165.233l-1.798-0.795c1.182-0.485,2.03-1.195,2.534-2.126l1.934,0.443
					C316.239,163.901,315.35,164.729,314.202,165.233z M313.154,157.573v-1.157h4.144c-0.092-0.219-0.252-0.499-0.482-0.843
					l0.092-0.01h-2.802v-1.157h6.227v-0.668h2.287v0.668h6.247v1.157h-2.73l0.293,0.036c-0.154,0.169-0.376,0.391-0.657,0.668
					c-0.067,0.067-0.119,0.115-0.154,0.149h4.271v1.157H313.154z M320.413,165.346c-1.202,0-2.015-0.111-2.441-0.329
					c-0.396-0.216-0.597-0.627-0.597-1.233v-1.319h2.087l-0.231-0.064l0.793-0.501h-4.833v-3.813h12.822v3.813h-6.288
					c0.813,0.249,1.486,0.506,2.016,0.769l-1.394,0.93c-0.647-0.38-1.558-0.741-2.73-1.084v1.259c0,0.167,0.063,0.272,0.186,0.314
					c0.123,0.041,0.401,0.062,0.844,0.062h2.668c0.36,0,0.591-0.059,0.694-0.18c0.107-0.123,0.185-0.406,0.236-0.848
					c0.473,0.216,1.126,0.375,1.952,0.478c-0.127,0.686-0.379,1.149-0.743,1.388c-0.371,0.24-1.014,0.36-1.929,0.36H320.413z
					 M317.375,159.547h8.354v-0.54h-8.354V159.547z M317.375,160.981h8.354v-0.566h-8.354V160.981z M319.329,156.416h4.293
					l-0.268-0.036c0.011-0.01,0.026-0.026,0.035-0.051c0.258-0.344,0.434-0.602,0.525-0.766h-4.801
					c0.194,0.292,0.348,0.565,0.468,0.817L319.329,156.416z M328.671,165.156c-0.268-0.33-0.695-0.718-1.275-1.17
					c-0.565-0.434-1.156-0.831-1.759-1.183l1.779-0.64c1.558,0.846,2.612,1.604,3.151,2.275L328.671,165.156z"/>
				<path fill="#2C51AE" d="M313.679,178.145v-9.57l1.26,0.303c1.676-0.37,3.151-0.807,4.427-1.308l1.897,1.27
					c-1.43,0.444-3.188,0.864-5.26,1.257v1.696h4.719v1.435h-4.719v2.478h4.755v1.445h-4.755v0.995H313.679z M321.767,179.279
					v-10.853h8.064v7.38c0,0.748-0.308,1.231-0.93,1.458c-0.333,0.119-0.766,0.201-1.295,0.242
					c-0.386,0.031-0.961,0.049-1.724,0.049c-0.05-0.218-0.163-0.483-0.333-0.799c-0.175-0.314-0.354-0.571-0.535-0.771
					c0.593,0.015,1.296,0.025,2.108,0.025c0.246-0.01,0.369-0.087,0.369-0.242v-5.858h-3.402v9.37H321.767z"/>
				<path fill="#2C51AE" d="M318.208,193.124v-5.121h-1.027v3.825h-1.667v-3.459c-0.216,1.969-0.739,3.483-1.563,4.539
					c-0.17-0.125-0.441-0.277-0.813-0.452c-0.349-0.167-0.647-0.293-0.889-0.376c0.549-0.748,0.931-1.719,1.142-2.919
					c0.128-0.787,0.189-1.777,0.189-2.967v-4.139h9.327v3.66h-2.787v1.057h2.92v3.745c0,0.278-0.03,0.488-0.098,0.633
					c-0.087,0.174-0.241,0.309-0.463,0.4c-0.324,0.16-0.91,0.239-1.759,0.239c-0.065-0.394-0.246-0.784-0.544-1.169
					c0.262,0.008,0.544,0.01,0.853,0.01c0.128,0,0.195-0.043,0.195-0.137v-2.491h-1.104v5.121H318.208z M315.633,184.394h5.125
					v-1.005h-5.125V184.394z M315.633,186.772h2.575v-1.057h-2.575v0.479C315.633,186.386,315.633,186.579,315.633,186.772z
					 M323.931,189.903v-7.283h2.149v7.283H323.931z M325.637,193.124c-0.081-0.421-0.313-0.925-0.698-1.512
					c0.669,0.018,1.45,0.027,2.339,0.027c0.159-0.009,0.267-0.031,0.329-0.062c0.066-0.037,0.098-0.104,0.098-0.201v-9.735h2.205
					v9.735c0,0.401-0.072,0.714-0.21,0.941c-0.144,0.226-0.386,0.399-0.736,0.516C328.383,193.026,327.272,193.124,325.637,193.124z
					"/>
			</g>
		</g>
	</g>
</g>
</svg>
